REM MD5 fe59e1459b9542f1a8c56a355e8463e9
FILE "Vivi la Magia di Disney su PlayStation (Italy).bin" BINARY
  TRACK 01 MODE2/2352
    INDEX 01 00:00:00
  TRACK 02 AUDIO
    INDEX 00 20:41:21
    INDEX 01 20:43:21
  TRACK 03 AUDIO
    INDEX 00 21:46:19
    INDEX 01 21:48:19
REM LEADOUT 24:49:51
